M48
; DRILL file {KiCad 7.0.1} date Wed Apr 24 16:11:56 2024
; FORMAT={-:-/ absolute / inch / decimal}
; #@! TF.CreationDate,2024-04-24T16:11:56-07:00
; #@! TF.GenerationSoftware,Kicad,Pcbnew,7.0.1
; #@! TF.FileFunction,Plated,1,2,PTH
FMAT,2
INCH
; #@! TA.AperFunction,Plated,PTH,ViaDrill
T1C0.0157
; #@! TA.AperFunction,Plated,PTH,ComponentDrill
T2C0.0394
; #@! TA.AperFunction,Plated,PTH,ComponentDrill
T3C0.0598
%
G90
G05
T1
X6.7126Y-2.7165
X6.7126Y-2.815
X7.1063Y-2.0965
X7.1063Y-2.3228
X7.1063Y-2.4213
X7.1063Y-2.5197
X7.1063Y-2.6181
X7.3425Y-2.3228
X7.3425Y-2.4213
X7.3524Y-2.0965
X7.3524Y-2.5197
X7.3524Y-2.6181
X7.3524Y-2.815
X7.4311Y-2.7165
X7.4606Y-1.6831
X7.687Y-1.6831
X8.4547Y-2.7559
X8.6024Y-1.5551
X8.6516Y-2.3327
X8.6614Y-1.6339
X8.6614Y-2.815
X8.6811Y-1.9327
X8.7008Y-3.002
X8.7106Y-1.4567
X8.7894Y-1.5059
X8.7992Y-2.3327
X8.7992Y-2.815
X8.8055Y-1.9327
T2
X5.502Y-3.4843
X5.5272Y-1.0433
X5.5272Y-2.9433
X5.602Y-3.4843
X5.6272Y-1.0433
X5.6272Y-2.9433
X5.702Y-3.4843
X5.7272Y-1.0433
X5.7272Y-2.9433
X5.8272Y-1.0433
X5.8272Y-2.9433
X5.9272Y-1.0433
X5.9272Y-2.9433
X6.0272Y-1.0433
X6.0272Y-2.9433
X6.1272Y-2.9433
X6.2272Y-1.0433
X6.2272Y-2.9433
X6.2815Y-3.2283
X6.3272Y-1.0433
X6.3815Y-3.2283
X6.387Y-2.9433
X6.4272Y-1.0433
X6.4815Y-3.2283
X6.487Y-2.9433
X6.5272Y-1.0433
X6.5815Y-3.2283
X6.587Y-2.9433
X6.6272Y-1.0433
X6.6815Y-3.2283
X6.687Y-2.9433
X6.7272Y-1.0433
X6.7815Y-3.2283
X6.787Y-2.9433
X6.8272Y-1.0433
X6.8799Y-3.3815
X6.8799Y-3.4815
X6.8815Y-3.2283
X6.887Y-2.9433
X6.9272Y-1.0433
X6.987Y-2.9433
X7.087Y-2.9433
X7.187Y-2.9433
X7.287Y-2.9433
X8.2185Y-1.3945
X8.2185Y-1.4945
X8.2185Y-1.5945
X8.2185Y-1.6945
X8.2185Y-1.7945
X8.2185Y-1.8945
X8.2185Y-1.9945
X8.2185Y-2.0945
T3
X8.422Y-1.0925
X8.622Y-1.0925
X9.0551Y-2.815
X9.0551Y-3.015
X9.0551Y-3.2661
X9.0551Y-3.4661
X9.065Y-1.05
X9.065Y-1.25
X9.065Y-1.45
X9.065Y-1.65
X9.065Y-1.9327
X9.065Y-2.1327
X9.065Y-2.3327
X9.065Y-2.5327
T0
M30
