%TF.GenerationSoftware,KiCad,Pcbnew,7.0.1*%
%TF.CreationDate,2024-04-24T16:11:52-07:00*%
%TF.ProjectId,Senior Design,53656e69-6f72-4204-9465-7369676e2e6b,rev?*%
%TF.SameCoordinates,Original*%
%TF.FileFunction,Legend,Top*%
%TF.FilePolarity,Positive*%
%FSLAX46Y46*%
G04 Gerber Fmt 4.6, Leading zero omitted, Abs format (unit mm)*
G04 Created by KiCad (PCBNEW 7.0.1) date 2024-04-24 16:11:52*
%MOMM*%
%LPD*%
G01*
G04 APERTURE LIST*
%ADD10C,0.150000*%
%ADD11C,0.125000*%
%ADD12C,0.120000*%
%ADD13R,1.700000X1.700000*%
%ADD14O,1.700000X1.700000*%
%ADD15R,3.000000X3.000000*%
%ADD16C,3.000000*%
%ADD17R,1.600000X1.600000*%
%ADD18O,1.600000X1.600000*%
G04 APERTURE END LIST*
D10*
X144377619Y-85357142D02*
X145377619Y-85119047D01*
X145377619Y-85119047D02*
X144663333Y-84928571D01*
X144663333Y-84928571D02*
X145377619Y-84738095D01*
X145377619Y-84738095D02*
X144377619Y-84500000D01*
X144710952Y-84119047D02*
X145710952Y-84119047D01*
X144758571Y-84119047D02*
X144710952Y-84023809D01*
X144710952Y-84023809D02*
X144710952Y-83833333D01*
X144710952Y-83833333D02*
X144758571Y-83738095D01*
X144758571Y-83738095D02*
X144806190Y-83690476D01*
X144806190Y-83690476D02*
X144901428Y-83642857D01*
X144901428Y-83642857D02*
X145187142Y-83642857D01*
X145187142Y-83642857D02*
X145282380Y-83690476D01*
X145282380Y-83690476D02*
X145330000Y-83738095D01*
X145330000Y-83738095D02*
X145377619Y-83833333D01*
X145377619Y-83833333D02*
X145377619Y-84023809D01*
X145377619Y-84023809D02*
X145330000Y-84119047D01*
X145330000Y-82499999D02*
X145377619Y-82357142D01*
X145377619Y-82357142D02*
X145377619Y-82119047D01*
X145377619Y-82119047D02*
X145330000Y-82023809D01*
X145330000Y-82023809D02*
X145282380Y-81976190D01*
X145282380Y-81976190D02*
X145187142Y-81928571D01*
X145187142Y-81928571D02*
X145091904Y-81928571D01*
X145091904Y-81928571D02*
X144996666Y-81976190D01*
X144996666Y-81976190D02*
X144949047Y-82023809D01*
X144949047Y-82023809D02*
X144901428Y-82119047D01*
X144901428Y-82119047D02*
X144853809Y-82309523D01*
X144853809Y-82309523D02*
X144806190Y-82404761D01*
X144806190Y-82404761D02*
X144758571Y-82452380D01*
X144758571Y-82452380D02*
X144663333Y-82499999D01*
X144663333Y-82499999D02*
X144568095Y-82499999D01*
X144568095Y-82499999D02*
X144472857Y-82452380D01*
X144472857Y-82452380D02*
X144425238Y-82404761D01*
X144425238Y-82404761D02*
X144377619Y-82309523D01*
X144377619Y-82309523D02*
X144377619Y-82071428D01*
X144377619Y-82071428D02*
X144425238Y-81928571D01*
X145377619Y-81499999D02*
X144710952Y-81499999D01*
X144377619Y-81499999D02*
X144425238Y-81547618D01*
X144425238Y-81547618D02*
X144472857Y-81499999D01*
X144472857Y-81499999D02*
X144425238Y-81452380D01*
X144425238Y-81452380D02*
X144377619Y-81499999D01*
X144377619Y-81499999D02*
X144472857Y-81499999D01*
X144710952Y-80595238D02*
X145520476Y-80595238D01*
X145520476Y-80595238D02*
X145615714Y-80642857D01*
X145615714Y-80642857D02*
X145663333Y-80690476D01*
X145663333Y-80690476D02*
X145710952Y-80785714D01*
X145710952Y-80785714D02*
X145710952Y-80928571D01*
X145710952Y-80928571D02*
X145663333Y-81023809D01*
X145330000Y-80595238D02*
X145377619Y-80690476D01*
X145377619Y-80690476D02*
X145377619Y-80880952D01*
X145377619Y-80880952D02*
X145330000Y-80976190D01*
X145330000Y-80976190D02*
X145282380Y-81023809D01*
X145282380Y-81023809D02*
X145187142Y-81071428D01*
X145187142Y-81071428D02*
X144901428Y-81071428D01*
X144901428Y-81071428D02*
X144806190Y-81023809D01*
X144806190Y-81023809D02*
X144758571Y-80976190D01*
X144758571Y-80976190D02*
X144710952Y-80880952D01*
X144710952Y-80880952D02*
X144710952Y-80690476D01*
X144710952Y-80690476D02*
X144758571Y-80595238D01*
X224359523Y-63890190D02*
X224283333Y-63852095D01*
X224283333Y-63852095D02*
X224169047Y-63852095D01*
X224169047Y-63852095D02*
X224054761Y-63890190D01*
X224054761Y-63890190D02*
X223978571Y-63966380D01*
X223978571Y-63966380D02*
X223940476Y-64042571D01*
X223940476Y-64042571D02*
X223902380Y-64194952D01*
X223902380Y-64194952D02*
X223902380Y-64309238D01*
X223902380Y-64309238D02*
X223940476Y-64461619D01*
X223940476Y-64461619D02*
X223978571Y-64537809D01*
X223978571Y-64537809D02*
X224054761Y-64614000D01*
X224054761Y-64614000D02*
X224169047Y-64652095D01*
X224169047Y-64652095D02*
X224245238Y-64652095D01*
X224245238Y-64652095D02*
X224359523Y-64614000D01*
X224359523Y-64614000D02*
X224397619Y-64575904D01*
X224397619Y-64575904D02*
X224397619Y-64309238D01*
X224397619Y-64309238D02*
X224245238Y-64309238D01*
X224740476Y-64652095D02*
X224740476Y-63852095D01*
X224740476Y-63852095D02*
X225197619Y-64652095D01*
X225197619Y-64652095D02*
X225197619Y-63852095D01*
X225578571Y-64652095D02*
X225578571Y-63852095D01*
X225578571Y-63852095D02*
X225769047Y-63852095D01*
X225769047Y-63852095D02*
X225883333Y-63890190D01*
X225883333Y-63890190D02*
X225959523Y-63966380D01*
X225959523Y-63966380D02*
X225997618Y-64042571D01*
X225997618Y-64042571D02*
X226035714Y-64194952D01*
X226035714Y-64194952D02*
X226035714Y-64309238D01*
X226035714Y-64309238D02*
X225997618Y-64461619D01*
X225997618Y-64461619D02*
X225959523Y-64537809D01*
X225959523Y-64537809D02*
X225883333Y-64614000D01*
X225883333Y-64614000D02*
X225769047Y-64652095D01*
X225769047Y-64652095D02*
X225578571Y-64652095D01*
D11*
X161556095Y-85604761D02*
X161556095Y-85033333D01*
X162356095Y-85319047D02*
X161556095Y-85319047D01*
X162356095Y-84699999D02*
X161556095Y-84699999D01*
X162356095Y-84271428D02*
X161937047Y-84271428D01*
X161937047Y-84271428D02*
X161860857Y-84319047D01*
X161860857Y-84319047D02*
X161822761Y-84414285D01*
X161822761Y-84414285D02*
X161822761Y-84557142D01*
X161822761Y-84557142D02*
X161860857Y-84652380D01*
X161860857Y-84652380D02*
X161898952Y-84699999D01*
D10*
X224038095Y-46806095D02*
X224038095Y-46006095D01*
X224038095Y-46006095D02*
X224276190Y-46006095D01*
X224276190Y-46006095D02*
X224419047Y-46044190D01*
X224419047Y-46044190D02*
X224514285Y-46120380D01*
X224514285Y-46120380D02*
X224561904Y-46196571D01*
X224561904Y-46196571D02*
X224609523Y-46348952D01*
X224609523Y-46348952D02*
X224609523Y-46463238D01*
X224609523Y-46463238D02*
X224561904Y-46615619D01*
X224561904Y-46615619D02*
X224514285Y-46691809D01*
X224514285Y-46691809D02*
X224419047Y-46768000D01*
X224419047Y-46768000D02*
X224276190Y-46806095D01*
X224276190Y-46806095D02*
X224038095Y-46806095D01*
X225038095Y-46806095D02*
X225038095Y-46272761D01*
X225038095Y-46006095D02*
X224990476Y-46044190D01*
X224990476Y-46044190D02*
X225038095Y-46082285D01*
X225038095Y-46082285D02*
X225085714Y-46044190D01*
X225085714Y-46044190D02*
X225038095Y-46006095D01*
X225038095Y-46006095D02*
X225038095Y-46082285D01*
X225514285Y-46806095D02*
X225514285Y-46272761D01*
X225514285Y-46425142D02*
X225561904Y-46348952D01*
X225561904Y-46348952D02*
X225609523Y-46310857D01*
X225609523Y-46310857D02*
X225704761Y-46272761D01*
X225704761Y-46272761D02*
X225799999Y-46272761D01*
X224038095Y-47797333D02*
X224800000Y-47797333D01*
X224419047Y-48102095D02*
X224419047Y-47492571D01*
X225847618Y-48102095D02*
X225514285Y-47721142D01*
X225276190Y-48102095D02*
X225276190Y-47302095D01*
X225276190Y-47302095D02*
X225657142Y-47302095D01*
X225657142Y-47302095D02*
X225752380Y-47340190D01*
X225752380Y-47340190D02*
X225799999Y-47378285D01*
X225799999Y-47378285D02*
X225847618Y-47454476D01*
X225847618Y-47454476D02*
X225847618Y-47568761D01*
X225847618Y-47568761D02*
X225799999Y-47644952D01*
X225799999Y-47644952D02*
X225752380Y-47683047D01*
X225752380Y-47683047D02*
X225657142Y-47721142D01*
X225657142Y-47721142D02*
X225276190Y-47721142D01*
X213095238Y-33377619D02*
X213428571Y-34377619D01*
X213428571Y-34377619D02*
X213761904Y-33377619D01*
X214523809Y-34330000D02*
X214428571Y-34377619D01*
X214428571Y-34377619D02*
X214238095Y-34377619D01*
X214238095Y-34377619D02*
X214142857Y-34330000D01*
X214142857Y-34330000D02*
X214095238Y-34282380D01*
X214095238Y-34282380D02*
X214047619Y-34187142D01*
X214047619Y-34187142D02*
X214047619Y-33901428D01*
X214047619Y-33901428D02*
X214095238Y-33806190D01*
X214095238Y-33806190D02*
X214142857Y-33758571D01*
X214142857Y-33758571D02*
X214238095Y-33710952D01*
X214238095Y-33710952D02*
X214428571Y-33710952D01*
X214428571Y-33710952D02*
X214523809Y-33758571D01*
X215380952Y-34330000D02*
X215285714Y-34377619D01*
X215285714Y-34377619D02*
X215095238Y-34377619D01*
X215095238Y-34377619D02*
X215000000Y-34330000D01*
X215000000Y-34330000D02*
X214952381Y-34282380D01*
X214952381Y-34282380D02*
X214904762Y-34187142D01*
X214904762Y-34187142D02*
X214904762Y-33901428D01*
X214904762Y-33901428D02*
X214952381Y-33806190D01*
X214952381Y-33806190D02*
X215000000Y-33758571D01*
X215000000Y-33758571D02*
X215095238Y-33710952D01*
X215095238Y-33710952D02*
X215285714Y-33710952D01*
X215285714Y-33710952D02*
X215380952Y-33758571D01*
X208761904Y-27175238D02*
X208666666Y-27127619D01*
X208666666Y-27127619D02*
X208523809Y-27127619D01*
X208523809Y-27127619D02*
X208380952Y-27175238D01*
X208380952Y-27175238D02*
X208285714Y-27270476D01*
X208285714Y-27270476D02*
X208238095Y-27365714D01*
X208238095Y-27365714D02*
X208190476Y-27556190D01*
X208190476Y-27556190D02*
X208190476Y-27699047D01*
X208190476Y-27699047D02*
X208238095Y-27889523D01*
X208238095Y-27889523D02*
X208285714Y-27984761D01*
X208285714Y-27984761D02*
X208380952Y-28080000D01*
X208380952Y-28080000D02*
X208523809Y-28127619D01*
X208523809Y-28127619D02*
X208619047Y-28127619D01*
X208619047Y-28127619D02*
X208761904Y-28080000D01*
X208761904Y-28080000D02*
X208809523Y-28032380D01*
X208809523Y-28032380D02*
X208809523Y-27699047D01*
X208809523Y-27699047D02*
X208619047Y-27699047D01*
X209238095Y-28127619D02*
X209238095Y-27127619D01*
X209238095Y-27127619D02*
X209809523Y-28127619D01*
X209809523Y-28127619D02*
X209809523Y-27127619D01*
X210285714Y-28127619D02*
X210285714Y-27127619D01*
X210285714Y-27127619D02*
X210523809Y-27127619D01*
X210523809Y-27127619D02*
X210666666Y-27175238D01*
X210666666Y-27175238D02*
X210761904Y-27270476D01*
X210761904Y-27270476D02*
X210809523Y-27365714D01*
X210809523Y-27365714D02*
X210857142Y-27556190D01*
X210857142Y-27556190D02*
X210857142Y-27699047D01*
X210857142Y-27699047D02*
X210809523Y-27889523D01*
X210809523Y-27889523D02*
X210761904Y-27984761D01*
X210761904Y-27984761D02*
X210666666Y-28080000D01*
X210666666Y-28080000D02*
X210523809Y-28127619D01*
X210523809Y-28127619D02*
X210285714Y-28127619D01*
X177845238Y-88127619D02*
X178178571Y-89127619D01*
X178178571Y-89127619D02*
X178511904Y-88127619D01*
X179273809Y-89080000D02*
X179178571Y-89127619D01*
X179178571Y-89127619D02*
X178988095Y-89127619D01*
X178988095Y-89127619D02*
X178892857Y-89080000D01*
X178892857Y-89080000D02*
X178845238Y-89032380D01*
X178845238Y-89032380D02*
X178797619Y-88937142D01*
X178797619Y-88937142D02*
X178797619Y-88651428D01*
X178797619Y-88651428D02*
X178845238Y-88556190D01*
X178845238Y-88556190D02*
X178892857Y-88508571D01*
X178892857Y-88508571D02*
X178988095Y-88460952D01*
X178988095Y-88460952D02*
X179178571Y-88460952D01*
X179178571Y-88460952D02*
X179273809Y-88508571D01*
X180130952Y-89080000D02*
X180035714Y-89127619D01*
X180035714Y-89127619D02*
X179845238Y-89127619D01*
X179845238Y-89127619D02*
X179750000Y-89080000D01*
X179750000Y-89080000D02*
X179702381Y-89032380D01*
X179702381Y-89032380D02*
X179654762Y-88937142D01*
X179654762Y-88937142D02*
X179654762Y-88651428D01*
X179654762Y-88651428D02*
X179702381Y-88556190D01*
X179702381Y-88556190D02*
X179750000Y-88508571D01*
X179750000Y-88508571D02*
X179845238Y-88460952D01*
X179845238Y-88460952D02*
X180035714Y-88460952D01*
X180035714Y-88460952D02*
X180130952Y-88508571D01*
X224359523Y-41390190D02*
X224283333Y-41352095D01*
X224283333Y-41352095D02*
X224169047Y-41352095D01*
X224169047Y-41352095D02*
X224054761Y-41390190D01*
X224054761Y-41390190D02*
X223978571Y-41466380D01*
X223978571Y-41466380D02*
X223940476Y-41542571D01*
X223940476Y-41542571D02*
X223902380Y-41694952D01*
X223902380Y-41694952D02*
X223902380Y-41809238D01*
X223902380Y-41809238D02*
X223940476Y-41961619D01*
X223940476Y-41961619D02*
X223978571Y-42037809D01*
X223978571Y-42037809D02*
X224054761Y-42114000D01*
X224054761Y-42114000D02*
X224169047Y-42152095D01*
X224169047Y-42152095D02*
X224245238Y-42152095D01*
X224245238Y-42152095D02*
X224359523Y-42114000D01*
X224359523Y-42114000D02*
X224397619Y-42075904D01*
X224397619Y-42075904D02*
X224397619Y-41809238D01*
X224397619Y-41809238D02*
X224245238Y-41809238D01*
X224740476Y-42152095D02*
X224740476Y-41352095D01*
X224740476Y-41352095D02*
X225197619Y-42152095D01*
X225197619Y-42152095D02*
X225197619Y-41352095D01*
X225578571Y-42152095D02*
X225578571Y-41352095D01*
X225578571Y-41352095D02*
X225769047Y-41352095D01*
X225769047Y-41352095D02*
X225883333Y-41390190D01*
X225883333Y-41390190D02*
X225959523Y-41466380D01*
X225959523Y-41466380D02*
X225997618Y-41542571D01*
X225997618Y-41542571D02*
X226035714Y-41694952D01*
X226035714Y-41694952D02*
X226035714Y-41809238D01*
X226035714Y-41809238D02*
X225997618Y-41961619D01*
X225997618Y-41961619D02*
X225959523Y-42037809D01*
X225959523Y-42037809D02*
X225883333Y-42114000D01*
X225883333Y-42114000D02*
X225769047Y-42152095D01*
X225769047Y-42152095D02*
X225578571Y-42152095D01*
X223638095Y-25606095D02*
X223638095Y-24806095D01*
X223638095Y-24806095D02*
X223876190Y-24806095D01*
X223876190Y-24806095D02*
X224019047Y-24844190D01*
X224019047Y-24844190D02*
X224114285Y-24920380D01*
X224114285Y-24920380D02*
X224161904Y-24996571D01*
X224161904Y-24996571D02*
X224209523Y-25148952D01*
X224209523Y-25148952D02*
X224209523Y-25263238D01*
X224209523Y-25263238D02*
X224161904Y-25415619D01*
X224161904Y-25415619D02*
X224114285Y-25491809D01*
X224114285Y-25491809D02*
X224019047Y-25568000D01*
X224019047Y-25568000D02*
X223876190Y-25606095D01*
X223876190Y-25606095D02*
X223638095Y-25606095D01*
X224638095Y-25606095D02*
X224638095Y-25072761D01*
X224638095Y-24806095D02*
X224590476Y-24844190D01*
X224590476Y-24844190D02*
X224638095Y-24882285D01*
X224638095Y-24882285D02*
X224685714Y-24844190D01*
X224685714Y-24844190D02*
X224638095Y-24806095D01*
X224638095Y-24806095D02*
X224638095Y-24882285D01*
X225114285Y-25606095D02*
X225114285Y-25072761D01*
X225114285Y-25225142D02*
X225161904Y-25148952D01*
X225161904Y-25148952D02*
X225209523Y-25110857D01*
X225209523Y-25110857D02*
X225304761Y-25072761D01*
X225304761Y-25072761D02*
X225399999Y-25072761D01*
X223638095Y-26597333D02*
X224400000Y-26597333D01*
X224019047Y-26902095D02*
X224019047Y-26292571D01*
X225352380Y-26902095D02*
X224876190Y-26902095D01*
X224876190Y-26902095D02*
X224876190Y-26102095D01*
X141675238Y-84988095D02*
X141627619Y-85083333D01*
X141627619Y-85083333D02*
X141627619Y-85226190D01*
X141627619Y-85226190D02*
X141675238Y-85369047D01*
X141675238Y-85369047D02*
X141770476Y-85464285D01*
X141770476Y-85464285D02*
X141865714Y-85511904D01*
X141865714Y-85511904D02*
X142056190Y-85559523D01*
X142056190Y-85559523D02*
X142199047Y-85559523D01*
X142199047Y-85559523D02*
X142389523Y-85511904D01*
X142389523Y-85511904D02*
X142484761Y-85464285D01*
X142484761Y-85464285D02*
X142580000Y-85369047D01*
X142580000Y-85369047D02*
X142627619Y-85226190D01*
X142627619Y-85226190D02*
X142627619Y-85130952D01*
X142627619Y-85130952D02*
X142580000Y-84988095D01*
X142580000Y-84988095D02*
X142532380Y-84940476D01*
X142532380Y-84940476D02*
X142199047Y-84940476D01*
X142199047Y-84940476D02*
X142199047Y-85130952D01*
X142627619Y-84511904D02*
X141627619Y-84511904D01*
X141627619Y-84511904D02*
X142627619Y-83940476D01*
X142627619Y-83940476D02*
X141627619Y-83940476D01*
X142627619Y-83464285D02*
X141627619Y-83464285D01*
X141627619Y-83464285D02*
X141627619Y-83226190D01*
X141627619Y-83226190D02*
X141675238Y-83083333D01*
X141675238Y-83083333D02*
X141770476Y-82988095D01*
X141770476Y-82988095D02*
X141865714Y-82940476D01*
X141865714Y-82940476D02*
X142056190Y-82892857D01*
X142056190Y-82892857D02*
X142199047Y-82892857D01*
X142199047Y-82892857D02*
X142389523Y-82940476D01*
X142389523Y-82940476D02*
X142484761Y-82988095D01*
X142484761Y-82988095D02*
X142580000Y-83083333D01*
X142580000Y-83083333D02*
X142627619Y-83226190D01*
X142627619Y-83226190D02*
X142627619Y-83464285D01*
X166733047Y-85261904D02*
X166733047Y-84928571D01*
X167152095Y-84785714D02*
X167152095Y-85261904D01*
X167152095Y-85261904D02*
X166352095Y-85261904D01*
X166352095Y-85261904D02*
X166352095Y-84785714D01*
X167152095Y-84214285D02*
X167114000Y-84309523D01*
X167114000Y-84309523D02*
X167037809Y-84357142D01*
X167037809Y-84357142D02*
X166352095Y-84357142D01*
X210902380Y-43364000D02*
X211016666Y-43402095D01*
X211016666Y-43402095D02*
X211207142Y-43402095D01*
X211207142Y-43402095D02*
X211283333Y-43364000D01*
X211283333Y-43364000D02*
X211321428Y-43325904D01*
X211321428Y-43325904D02*
X211359523Y-43249714D01*
X211359523Y-43249714D02*
X211359523Y-43173523D01*
X211359523Y-43173523D02*
X211321428Y-43097333D01*
X211321428Y-43097333D02*
X211283333Y-43059238D01*
X211283333Y-43059238D02*
X211207142Y-43021142D01*
X211207142Y-43021142D02*
X211054761Y-42983047D01*
X211054761Y-42983047D02*
X210978571Y-42944952D01*
X210978571Y-42944952D02*
X210940476Y-42906857D01*
X210940476Y-42906857D02*
X210902380Y-42830666D01*
X210902380Y-42830666D02*
X210902380Y-42754476D01*
X210902380Y-42754476D02*
X210940476Y-42678285D01*
X210940476Y-42678285D02*
X210978571Y-42640190D01*
X210978571Y-42640190D02*
X211054761Y-42602095D01*
X211054761Y-42602095D02*
X211245238Y-42602095D01*
X211245238Y-42602095D02*
X211359523Y-42640190D01*
X211702381Y-43402095D02*
X211702381Y-42602095D01*
X211702381Y-42602095D02*
X211892857Y-42602095D01*
X211892857Y-42602095D02*
X212007143Y-42640190D01*
X212007143Y-42640190D02*
X212083333Y-42716380D01*
X212083333Y-42716380D02*
X212121428Y-42792571D01*
X212121428Y-42792571D02*
X212159524Y-42944952D01*
X212159524Y-42944952D02*
X212159524Y-43059238D01*
X212159524Y-43059238D02*
X212121428Y-43211619D01*
X212121428Y-43211619D02*
X212083333Y-43287809D01*
X212083333Y-43287809D02*
X212007143Y-43364000D01*
X212007143Y-43364000D02*
X211892857Y-43402095D01*
X211892857Y-43402095D02*
X211702381Y-43402095D01*
X212464285Y-43173523D02*
X212845238Y-43173523D01*
X212388095Y-43402095D02*
X212654762Y-42602095D01*
X212654762Y-42602095D02*
X212921428Y-43402095D01*
X224359523Y-53640190D02*
X224283333Y-53602095D01*
X224283333Y-53602095D02*
X224169047Y-53602095D01*
X224169047Y-53602095D02*
X224054761Y-53640190D01*
X224054761Y-53640190D02*
X223978571Y-53716380D01*
X223978571Y-53716380D02*
X223940476Y-53792571D01*
X223940476Y-53792571D02*
X223902380Y-53944952D01*
X223902380Y-53944952D02*
X223902380Y-54059238D01*
X223902380Y-54059238D02*
X223940476Y-54211619D01*
X223940476Y-54211619D02*
X223978571Y-54287809D01*
X223978571Y-54287809D02*
X224054761Y-54364000D01*
X224054761Y-54364000D02*
X224169047Y-54402095D01*
X224169047Y-54402095D02*
X224245238Y-54402095D01*
X224245238Y-54402095D02*
X224359523Y-54364000D01*
X224359523Y-54364000D02*
X224397619Y-54325904D01*
X224397619Y-54325904D02*
X224397619Y-54059238D01*
X224397619Y-54059238D02*
X224245238Y-54059238D01*
X224740476Y-54402095D02*
X224740476Y-53602095D01*
X224740476Y-53602095D02*
X225197619Y-54402095D01*
X225197619Y-54402095D02*
X225197619Y-53602095D01*
X225578571Y-54402095D02*
X225578571Y-53602095D01*
X225578571Y-53602095D02*
X225769047Y-53602095D01*
X225769047Y-53602095D02*
X225883333Y-53640190D01*
X225883333Y-53640190D02*
X225959523Y-53716380D01*
X225959523Y-53716380D02*
X225997618Y-53792571D01*
X225997618Y-53792571D02*
X226035714Y-53944952D01*
X226035714Y-53944952D02*
X226035714Y-54059238D01*
X226035714Y-54059238D02*
X225997618Y-54211619D01*
X225997618Y-54211619D02*
X225959523Y-54287809D01*
X225959523Y-54287809D02*
X225883333Y-54364000D01*
X225883333Y-54364000D02*
X225769047Y-54402095D01*
X225769047Y-54402095D02*
X225578571Y-54402095D01*
X204738095Y-52127619D02*
X204738095Y-51127619D01*
X205214285Y-52127619D02*
X205214285Y-51127619D01*
X205214285Y-51127619D02*
X205785713Y-52127619D01*
X205785713Y-52127619D02*
X205785713Y-51127619D01*
X206119047Y-51127619D02*
X206690475Y-51127619D01*
X206404761Y-52127619D02*
X206404761Y-51127619D01*
X223983047Y-70309523D02*
X223983047Y-70042857D01*
X224402095Y-69928571D02*
X224402095Y-70309523D01*
X224402095Y-70309523D02*
X223602095Y-70309523D01*
X223602095Y-70309523D02*
X223602095Y-69928571D01*
X224364000Y-69623809D02*
X224402095Y-69509523D01*
X224402095Y-69509523D02*
X224402095Y-69319047D01*
X224402095Y-69319047D02*
X224364000Y-69242856D01*
X224364000Y-69242856D02*
X224325904Y-69204761D01*
X224325904Y-69204761D02*
X224249714Y-69166666D01*
X224249714Y-69166666D02*
X224173523Y-69166666D01*
X224173523Y-69166666D02*
X224097333Y-69204761D01*
X224097333Y-69204761D02*
X224059238Y-69242856D01*
X224059238Y-69242856D02*
X224021142Y-69319047D01*
X224021142Y-69319047D02*
X223983047Y-69471428D01*
X223983047Y-69471428D02*
X223944952Y-69547618D01*
X223944952Y-69547618D02*
X223906857Y-69585713D01*
X223906857Y-69585713D02*
X223830666Y-69623809D01*
X223830666Y-69623809D02*
X223754476Y-69623809D01*
X223754476Y-69623809D02*
X223678285Y-69585713D01*
X223678285Y-69585713D02*
X223640190Y-69547618D01*
X223640190Y-69547618D02*
X223602095Y-69471428D01*
X223602095Y-69471428D02*
X223602095Y-69280951D01*
X223602095Y-69280951D02*
X223640190Y-69166666D01*
X224325904Y-68366665D02*
X224364000Y-68404761D01*
X224364000Y-68404761D02*
X224402095Y-68519046D01*
X224402095Y-68519046D02*
X224402095Y-68595237D01*
X224402095Y-68595237D02*
X224364000Y-68709523D01*
X224364000Y-68709523D02*
X224287809Y-68785713D01*
X224287809Y-68785713D02*
X224211619Y-68823808D01*
X224211619Y-68823808D02*
X224059238Y-68861904D01*
X224059238Y-68861904D02*
X223944952Y-68861904D01*
X223944952Y-68861904D02*
X223792571Y-68823808D01*
X223792571Y-68823808D02*
X223716380Y-68785713D01*
X223716380Y-68785713D02*
X223640190Y-68709523D01*
X223640190Y-68709523D02*
X223602095Y-68595237D01*
X223602095Y-68595237D02*
X223602095Y-68519046D01*
X223602095Y-68519046D02*
X223640190Y-68404761D01*
X223640190Y-68404761D02*
X223678285Y-68366665D01*
X224402095Y-66957141D02*
X224021142Y-67223808D01*
X224402095Y-67414284D02*
X223602095Y-67414284D01*
X223602095Y-67414284D02*
X223602095Y-67109522D01*
X223602095Y-67109522D02*
X223640190Y-67033332D01*
X223640190Y-67033332D02*
X223678285Y-66995237D01*
X223678285Y-66995237D02*
X223754476Y-66957141D01*
X223754476Y-66957141D02*
X223868761Y-66957141D01*
X223868761Y-66957141D02*
X223944952Y-66995237D01*
X223944952Y-66995237D02*
X223983047Y-67033332D01*
X223983047Y-67033332D02*
X224021142Y-67109522D01*
X224021142Y-67109522D02*
X224021142Y-67414284D01*
X164623523Y-85309523D02*
X164623523Y-84833333D01*
X164852095Y-85404761D02*
X164052095Y-85071428D01*
X164052095Y-85071428D02*
X164852095Y-84738095D01*
X164852095Y-84404761D02*
X164052095Y-84404761D01*
X223983047Y-84309523D02*
X223983047Y-84042857D01*
X224402095Y-83928571D02*
X224402095Y-84309523D01*
X224402095Y-84309523D02*
X223602095Y-84309523D01*
X223602095Y-84309523D02*
X223602095Y-83928571D01*
X224364000Y-83623809D02*
X224402095Y-83509523D01*
X224402095Y-83509523D02*
X224402095Y-83319047D01*
X224402095Y-83319047D02*
X224364000Y-83242856D01*
X224364000Y-83242856D02*
X224325904Y-83204761D01*
X224325904Y-83204761D02*
X224249714Y-83166666D01*
X224249714Y-83166666D02*
X224173523Y-83166666D01*
X224173523Y-83166666D02*
X224097333Y-83204761D01*
X224097333Y-83204761D02*
X224059238Y-83242856D01*
X224059238Y-83242856D02*
X224021142Y-83319047D01*
X224021142Y-83319047D02*
X223983047Y-83471428D01*
X223983047Y-83471428D02*
X223944952Y-83547618D01*
X223944952Y-83547618D02*
X223906857Y-83585713D01*
X223906857Y-83585713D02*
X223830666Y-83623809D01*
X223830666Y-83623809D02*
X223754476Y-83623809D01*
X223754476Y-83623809D02*
X223678285Y-83585713D01*
X223678285Y-83585713D02*
X223640190Y-83547618D01*
X223640190Y-83547618D02*
X223602095Y-83471428D01*
X223602095Y-83471428D02*
X223602095Y-83280951D01*
X223602095Y-83280951D02*
X223640190Y-83166666D01*
X224325904Y-82366665D02*
X224364000Y-82404761D01*
X224364000Y-82404761D02*
X224402095Y-82519046D01*
X224402095Y-82519046D02*
X224402095Y-82595237D01*
X224402095Y-82595237D02*
X224364000Y-82709523D01*
X224364000Y-82709523D02*
X224287809Y-82785713D01*
X224287809Y-82785713D02*
X224211619Y-82823808D01*
X224211619Y-82823808D02*
X224059238Y-82861904D01*
X224059238Y-82861904D02*
X223944952Y-82861904D01*
X223944952Y-82861904D02*
X223792571Y-82823808D01*
X223792571Y-82823808D02*
X223716380Y-82785713D01*
X223716380Y-82785713D02*
X223640190Y-82709523D01*
X223640190Y-82709523D02*
X223602095Y-82595237D01*
X223602095Y-82595237D02*
X223602095Y-82519046D01*
X223602095Y-82519046D02*
X223640190Y-82404761D01*
X223640190Y-82404761D02*
X223678285Y-82366665D01*
X224402095Y-81033332D02*
X224402095Y-81414284D01*
X224402095Y-81414284D02*
X223602095Y-81414284D01*
X224359523Y-31390190D02*
X224283333Y-31352095D01*
X224283333Y-31352095D02*
X224169047Y-31352095D01*
X224169047Y-31352095D02*
X224054761Y-31390190D01*
X224054761Y-31390190D02*
X223978571Y-31466380D01*
X223978571Y-31466380D02*
X223940476Y-31542571D01*
X223940476Y-31542571D02*
X223902380Y-31694952D01*
X223902380Y-31694952D02*
X223902380Y-31809238D01*
X223902380Y-31809238D02*
X223940476Y-31961619D01*
X223940476Y-31961619D02*
X223978571Y-32037809D01*
X223978571Y-32037809D02*
X224054761Y-32114000D01*
X224054761Y-32114000D02*
X224169047Y-32152095D01*
X224169047Y-32152095D02*
X224245238Y-32152095D01*
X224245238Y-32152095D02*
X224359523Y-32114000D01*
X224359523Y-32114000D02*
X224397619Y-32075904D01*
X224397619Y-32075904D02*
X224397619Y-31809238D01*
X224397619Y-31809238D02*
X224245238Y-31809238D01*
X224740476Y-32152095D02*
X224740476Y-31352095D01*
X224740476Y-31352095D02*
X225197619Y-32152095D01*
X225197619Y-32152095D02*
X225197619Y-31352095D01*
X225578571Y-32152095D02*
X225578571Y-31352095D01*
X225578571Y-31352095D02*
X225769047Y-31352095D01*
X225769047Y-31352095D02*
X225883333Y-31390190D01*
X225883333Y-31390190D02*
X225959523Y-31466380D01*
X225959523Y-31466380D02*
X225997618Y-31542571D01*
X225997618Y-31542571D02*
X226035714Y-31694952D01*
X226035714Y-31694952D02*
X226035714Y-31809238D01*
X226035714Y-31809238D02*
X225997618Y-31961619D01*
X225997618Y-31961619D02*
X225959523Y-32037809D01*
X225959523Y-32037809D02*
X225883333Y-32114000D01*
X225883333Y-32114000D02*
X225769047Y-32152095D01*
X225769047Y-32152095D02*
X225578571Y-32152095D01*
X138877619Y-85654761D02*
X139877619Y-85321428D01*
X139877619Y-85321428D02*
X138877619Y-84988095D01*
X139830000Y-84226190D02*
X139877619Y-84321428D01*
X139877619Y-84321428D02*
X139877619Y-84511904D01*
X139877619Y-84511904D02*
X139830000Y-84607142D01*
X139830000Y-84607142D02*
X139782380Y-84654761D01*
X139782380Y-84654761D02*
X139687142Y-84702380D01*
X139687142Y-84702380D02*
X139401428Y-84702380D01*
X139401428Y-84702380D02*
X139306190Y-84654761D01*
X139306190Y-84654761D02*
X139258571Y-84607142D01*
X139258571Y-84607142D02*
X139210952Y-84511904D01*
X139210952Y-84511904D02*
X139210952Y-84321428D01*
X139210952Y-84321428D02*
X139258571Y-84226190D01*
X139830000Y-83369047D02*
X139877619Y-83464285D01*
X139877619Y-83464285D02*
X139877619Y-83654761D01*
X139877619Y-83654761D02*
X139830000Y-83749999D01*
X139830000Y-83749999D02*
X139782380Y-83797618D01*
X139782380Y-83797618D02*
X139687142Y-83845237D01*
X139687142Y-83845237D02*
X139401428Y-83845237D01*
X139401428Y-83845237D02*
X139306190Y-83797618D01*
X139306190Y-83797618D02*
X139258571Y-83749999D01*
X139258571Y-83749999D02*
X139210952Y-83654761D01*
X139210952Y-83654761D02*
X139210952Y-83464285D01*
X139210952Y-83464285D02*
X139258571Y-83369047D01*
X169852095Y-84990476D02*
X169471142Y-85323809D01*
X169852095Y-85561904D02*
X169052095Y-85561904D01*
X169052095Y-85561904D02*
X169052095Y-85180952D01*
X169052095Y-85180952D02*
X169090190Y-85085714D01*
X169090190Y-85085714D02*
X169128285Y-85038095D01*
X169128285Y-85038095D02*
X169204476Y-84990476D01*
X169204476Y-84990476D02*
X169318761Y-84990476D01*
X169318761Y-84990476D02*
X169394952Y-85038095D01*
X169394952Y-85038095D02*
X169433047Y-85085714D01*
X169433047Y-85085714D02*
X169471142Y-85180952D01*
X169471142Y-85180952D02*
X169471142Y-85561904D01*
X169318761Y-84133333D02*
X169852095Y-84133333D01*
X169318761Y-84561904D02*
X169737809Y-84561904D01*
X169737809Y-84561904D02*
X169814000Y-84514285D01*
X169814000Y-84514285D02*
X169852095Y-84419047D01*
X169852095Y-84419047D02*
X169852095Y-84276190D01*
X169852095Y-84276190D02*
X169814000Y-84180952D01*
X169814000Y-84180952D02*
X169775904Y-84133333D01*
X210902380Y-40864000D02*
X211016666Y-40902095D01*
X211016666Y-40902095D02*
X211207142Y-40902095D01*
X211207142Y-40902095D02*
X211283333Y-40864000D01*
X211283333Y-40864000D02*
X211321428Y-40825904D01*
X211321428Y-40825904D02*
X211359523Y-40749714D01*
X211359523Y-40749714D02*
X211359523Y-40673523D01*
X211359523Y-40673523D02*
X211321428Y-40597333D01*
X211321428Y-40597333D02*
X211283333Y-40559238D01*
X211283333Y-40559238D02*
X211207142Y-40521142D01*
X211207142Y-40521142D02*
X211054761Y-40483047D01*
X211054761Y-40483047D02*
X210978571Y-40444952D01*
X210978571Y-40444952D02*
X210940476Y-40406857D01*
X210940476Y-40406857D02*
X210902380Y-40330666D01*
X210902380Y-40330666D02*
X210902380Y-40254476D01*
X210902380Y-40254476D02*
X210940476Y-40178285D01*
X210940476Y-40178285D02*
X210978571Y-40140190D01*
X210978571Y-40140190D02*
X211054761Y-40102095D01*
X211054761Y-40102095D02*
X211245238Y-40102095D01*
X211245238Y-40102095D02*
X211359523Y-40140190D01*
X212159524Y-40825904D02*
X212121428Y-40864000D01*
X212121428Y-40864000D02*
X212007143Y-40902095D01*
X212007143Y-40902095D02*
X211930952Y-40902095D01*
X211930952Y-40902095D02*
X211816666Y-40864000D01*
X211816666Y-40864000D02*
X211740476Y-40787809D01*
X211740476Y-40787809D02*
X211702381Y-40711619D01*
X211702381Y-40711619D02*
X211664285Y-40559238D01*
X211664285Y-40559238D02*
X211664285Y-40444952D01*
X211664285Y-40444952D02*
X211702381Y-40292571D01*
X211702381Y-40292571D02*
X211740476Y-40216380D01*
X211740476Y-40216380D02*
X211816666Y-40140190D01*
X211816666Y-40140190D02*
X211930952Y-40102095D01*
X211930952Y-40102095D02*
X212007143Y-40102095D01*
X212007143Y-40102095D02*
X212121428Y-40140190D01*
X212121428Y-40140190D02*
X212159524Y-40178285D01*
X212883333Y-40902095D02*
X212502381Y-40902095D01*
X212502381Y-40902095D02*
X212502381Y-40102095D01*
X224138095Y-36006095D02*
X224138095Y-35206095D01*
X224138095Y-35206095D02*
X224519047Y-35206095D01*
X224519047Y-35206095D02*
X224614285Y-35244190D01*
X224614285Y-35244190D02*
X224661904Y-35282285D01*
X224661904Y-35282285D02*
X224709523Y-35358476D01*
X224709523Y-35358476D02*
X224709523Y-35472761D01*
X224709523Y-35472761D02*
X224661904Y-35548952D01*
X224661904Y-35548952D02*
X224614285Y-35587047D01*
X224614285Y-35587047D02*
X224519047Y-35625142D01*
X224519047Y-35625142D02*
X224138095Y-35625142D01*
X225566666Y-35472761D02*
X225566666Y-36006095D01*
X225138095Y-35472761D02*
X225138095Y-35891809D01*
X225138095Y-35891809D02*
X225185714Y-35968000D01*
X225185714Y-35968000D02*
X225280952Y-36006095D01*
X225280952Y-36006095D02*
X225423809Y-36006095D01*
X225423809Y-36006095D02*
X225519047Y-35968000D01*
X225519047Y-35968000D02*
X225566666Y-35929904D01*
X226185714Y-36006095D02*
X226090476Y-35968000D01*
X226090476Y-35968000D02*
X226042857Y-35891809D01*
X226042857Y-35891809D02*
X226042857Y-35206095D01*
X224138095Y-36997333D02*
X224900000Y-36997333D01*
X224519047Y-37302095D02*
X224519047Y-36692571D01*
X225852380Y-37302095D02*
X225376190Y-37302095D01*
X225376190Y-37302095D02*
X225376190Y-36502095D01*
X178261904Y-85175238D02*
X178166666Y-85127619D01*
X178166666Y-85127619D02*
X178023809Y-85127619D01*
X178023809Y-85127619D02*
X177880952Y-85175238D01*
X177880952Y-85175238D02*
X177785714Y-85270476D01*
X177785714Y-85270476D02*
X177738095Y-85365714D01*
X177738095Y-85365714D02*
X177690476Y-85556190D01*
X177690476Y-85556190D02*
X177690476Y-85699047D01*
X177690476Y-85699047D02*
X177738095Y-85889523D01*
X177738095Y-85889523D02*
X177785714Y-85984761D01*
X177785714Y-85984761D02*
X177880952Y-86080000D01*
X177880952Y-86080000D02*
X178023809Y-86127619D01*
X178023809Y-86127619D02*
X178119047Y-86127619D01*
X178119047Y-86127619D02*
X178261904Y-86080000D01*
X178261904Y-86080000D02*
X178309523Y-86032380D01*
X178309523Y-86032380D02*
X178309523Y-85699047D01*
X178309523Y-85699047D02*
X178119047Y-85699047D01*
X178738095Y-86127619D02*
X178738095Y-85127619D01*
X178738095Y-85127619D02*
X179309523Y-86127619D01*
X179309523Y-86127619D02*
X179309523Y-85127619D01*
X179785714Y-86127619D02*
X179785714Y-85127619D01*
X179785714Y-85127619D02*
X180023809Y-85127619D01*
X180023809Y-85127619D02*
X180166666Y-85175238D01*
X180166666Y-85175238D02*
X180261904Y-85270476D01*
X180261904Y-85270476D02*
X180309523Y-85365714D01*
X180309523Y-85365714D02*
X180357142Y-85556190D01*
X180357142Y-85556190D02*
X180357142Y-85699047D01*
X180357142Y-85699047D02*
X180309523Y-85889523D01*
X180309523Y-85889523D02*
X180261904Y-85984761D01*
X180261904Y-85984761D02*
X180166666Y-86080000D01*
X180166666Y-86080000D02*
X180023809Y-86127619D01*
X180023809Y-86127619D02*
X179785714Y-86127619D01*
X223988095Y-56856095D02*
X223988095Y-56056095D01*
X223988095Y-56056095D02*
X224369047Y-56056095D01*
X224369047Y-56056095D02*
X224464285Y-56094190D01*
X224464285Y-56094190D02*
X224511904Y-56132285D01*
X224511904Y-56132285D02*
X224559523Y-56208476D01*
X224559523Y-56208476D02*
X224559523Y-56322761D01*
X224559523Y-56322761D02*
X224511904Y-56398952D01*
X224511904Y-56398952D02*
X224464285Y-56437047D01*
X224464285Y-56437047D02*
X224369047Y-56475142D01*
X224369047Y-56475142D02*
X223988095Y-56475142D01*
X225416666Y-56322761D02*
X225416666Y-56856095D01*
X224988095Y-56322761D02*
X224988095Y-56741809D01*
X224988095Y-56741809D02*
X225035714Y-56818000D01*
X225035714Y-56818000D02*
X225130952Y-56856095D01*
X225130952Y-56856095D02*
X225273809Y-56856095D01*
X225273809Y-56856095D02*
X225369047Y-56818000D01*
X225369047Y-56818000D02*
X225416666Y-56779904D01*
X226035714Y-56856095D02*
X225940476Y-56818000D01*
X225940476Y-56818000D02*
X225892857Y-56741809D01*
X225892857Y-56741809D02*
X225892857Y-56056095D01*
X223988095Y-57847333D02*
X224750000Y-57847333D01*
X224369047Y-58152095D02*
X224369047Y-57542571D01*
X225797618Y-58152095D02*
X225464285Y-57771142D01*
X225226190Y-58152095D02*
X225226190Y-57352095D01*
X225226190Y-57352095D02*
X225607142Y-57352095D01*
X225607142Y-57352095D02*
X225702380Y-57390190D01*
X225702380Y-57390190D02*
X225749999Y-57428285D01*
X225749999Y-57428285D02*
X225797618Y-57504476D01*
X225797618Y-57504476D02*
X225797618Y-57618761D01*
X225797618Y-57618761D02*
X225749999Y-57694952D01*
X225749999Y-57694952D02*
X225702380Y-57733047D01*
X225702380Y-57733047D02*
X225607142Y-57771142D01*
X225607142Y-57771142D02*
X225226190Y-57771142D01*
D12*
%TO.C,J9*%
X160820000Y-83330000D02*
X176120000Y-83330000D01*
X160820000Y-83330000D02*
X160820000Y-80670000D01*
X176120000Y-83330000D02*
X176120000Y-80670000D01*
X158220000Y-82000000D02*
X158220000Y-80670000D01*
X158220000Y-80670000D02*
X159550000Y-80670000D01*
X160820000Y-80670000D02*
X176120000Y-80670000D01*
%TO.C,J4*%
X141020000Y-89830000D02*
X146160000Y-89830000D01*
X141020000Y-89830000D02*
X141020000Y-87170000D01*
X146160000Y-89830000D02*
X146160000Y-87170000D01*
X138420000Y-88500000D02*
X138420000Y-87170000D01*
X138420000Y-87170000D02*
X139750000Y-87170000D01*
X141020000Y-87170000D02*
X146160000Y-87170000D01*
%TO.C,J2*%
X226190000Y-90580000D02*
X233810000Y-90580000D01*
X233810000Y-90580000D02*
X233810000Y-80420000D01*
X226190000Y-80420000D02*
X226190000Y-90580000D01*
X232540000Y-80420000D02*
X232540000Y-90580000D01*
X233810000Y-80420000D02*
X226190000Y-80420000D01*
%TO.C,J5*%
X226440000Y-66870000D02*
X234060000Y-66870000D01*
X226440000Y-66870000D02*
X226440000Y-46550000D01*
X234060000Y-66870000D02*
X234060000Y-46550000D01*
X232790000Y-46550000D02*
X232790000Y-66870000D01*
X234060000Y-46550000D02*
X226440000Y-46550000D01*
%TO.C,J7*%
X226190000Y-79120000D02*
X233810000Y-79120000D01*
X233810000Y-79120000D02*
X233810000Y-68960000D01*
X226190000Y-68960000D02*
X226190000Y-79120000D01*
X232540000Y-68960000D02*
X232540000Y-79120000D01*
X233810000Y-68960000D02*
X226190000Y-68960000D01*
%TO.C,J10*%
X173420000Y-87160000D02*
X173420000Y-89760000D01*
X173420000Y-87160000D02*
X176080000Y-87160000D01*
X173420000Y-89760000D02*
X176080000Y-89760000D01*
X174750000Y-84560000D02*
X176080000Y-84560000D01*
X176080000Y-84560000D02*
X176080000Y-85890000D01*
X176080000Y-87160000D02*
X176080000Y-89760000D01*
%TO.C,J8*%
X207420000Y-36690000D02*
X207420000Y-54530000D01*
X207420000Y-36690000D02*
X210080000Y-36690000D01*
X207420000Y-54530000D02*
X210080000Y-54530000D01*
X208750000Y-34090000D02*
X210080000Y-34090000D01*
X210080000Y-34090000D02*
X210080000Y-35420000D01*
X210080000Y-36690000D02*
X210080000Y-54530000D01*
%TO.C,J1*%
X221540000Y-31560000D02*
X221540000Y-23940000D01*
X221540000Y-23940000D02*
X211380000Y-23940000D01*
X211380000Y-31560000D02*
X221540000Y-31560000D01*
X211380000Y-25210000D02*
X221540000Y-25210000D01*
X211380000Y-23940000D02*
X211380000Y-31560000D01*
%TO.C,J6*%
X226440000Y-44450000D02*
X234060000Y-44450000D01*
X226440000Y-44450000D02*
X226440000Y-24130000D01*
X234060000Y-44450000D02*
X234060000Y-24130000D01*
X232790000Y-24130000D02*
X232790000Y-44450000D01*
X234060000Y-24130000D02*
X226440000Y-24130000D01*
%TD*%
%LPC*%
D13*
%TO.C,J9*%
X159550000Y-82000000D03*
D14*
X162090000Y-82000000D03*
X164630000Y-82000000D03*
X167170000Y-82000000D03*
X169710000Y-82000000D03*
X172250000Y-82000000D03*
X174790000Y-82000000D03*
%TD*%
D13*
%TO.C,J4*%
X139750000Y-88500000D03*
D14*
X142290000Y-88500000D03*
X144830000Y-88500000D03*
%TD*%
D15*
%TO.C,J2*%
X230000000Y-88040000D03*
D16*
X230000000Y-82960000D03*
%TD*%
D15*
%TO.C,J5*%
X230250000Y-64330000D03*
D16*
X230250000Y-59250000D03*
X230250000Y-54170000D03*
X230250000Y-49090000D03*
%TD*%
D15*
%TO.C,J7*%
X230000000Y-76580000D03*
D16*
X230000000Y-71500000D03*
%TD*%
D13*
%TO.C,J10*%
X174750000Y-85890000D03*
D14*
X174750000Y-88430000D03*
%TD*%
D13*
%TO.C,J8*%
X208750000Y-35420000D03*
D14*
X208750000Y-37960000D03*
X208750000Y-40500000D03*
X208750000Y-43040000D03*
X208750000Y-45580000D03*
X208750000Y-48120000D03*
X208750000Y-50660000D03*
X208750000Y-53200000D03*
%TD*%
D15*
%TO.C,J1*%
X219000000Y-27750000D03*
D16*
X213920000Y-27750000D03*
%TD*%
D15*
%TO.C,J6*%
X230250000Y-41910000D03*
D16*
X230250000Y-36830000D03*
X230250000Y-31750000D03*
X230250000Y-26670000D03*
%TD*%
D17*
%TO.C,A1*%
X175950000Y-26500000D03*
D18*
X173410000Y-26500000D03*
X170870000Y-26500000D03*
X168330000Y-26500000D03*
X165790000Y-26500000D03*
X163250000Y-26500000D03*
X160710000Y-26500000D03*
X158170000Y-26500000D03*
X153090000Y-26500000D03*
X150550000Y-26500000D03*
X148010000Y-26500000D03*
X145470000Y-26500000D03*
X142930000Y-26500000D03*
X140390000Y-26500000D03*
X140390000Y-74760000D03*
X142930000Y-74760000D03*
X145470000Y-74760000D03*
X148010000Y-74760000D03*
X150550000Y-74760000D03*
X153090000Y-74760000D03*
X155630000Y-74760000D03*
X158170000Y-74760000D03*
X162230000Y-74760000D03*
X164770000Y-74760000D03*
X167310000Y-74760000D03*
X169850000Y-74760000D03*
X172390000Y-74760000D03*
X174930000Y-74760000D03*
X177470000Y-74760000D03*
X180010000Y-74760000D03*
X182550000Y-74760000D03*
X185090000Y-74760000D03*
%TD*%
M02*
