%TF.GenerationSoftware,KiCad,Pcbnew,7.0.1*%
%TF.CreationDate,2024-04-24T16:11:52-07:00*%
%TF.ProjectId,Senior Design,53656e69-6f72-4204-9465-7369676e2e6b,rev?*%
%TF.SameCoordinates,Original*%
%TF.FileFunction,Soldermask,Bot*%
%TF.FilePolarity,Negative*%
%FSLAX46Y46*%
G04 Gerber Fmt 4.6, Leading zero omitted, Abs format (unit mm)*
G04 Created by KiCad (PCBNEW 7.0.1) date 2024-04-24 16:11:52*
%MOMM*%
%LPD*%
G01*
G04 APERTURE LIST*
%ADD10R,1.700000X1.700000*%
%ADD11O,1.700000X1.700000*%
%ADD12R,3.000000X3.000000*%
%ADD13C,3.000000*%
%ADD14R,1.600000X1.600000*%
%ADD15O,1.600000X1.600000*%
G04 APERTURE END LIST*
D10*
%TO.C,J9*%
X159550000Y-82000000D03*
D11*
X162090000Y-82000000D03*
X164630000Y-82000000D03*
X167170000Y-82000000D03*
X169710000Y-82000000D03*
X172250000Y-82000000D03*
X174790000Y-82000000D03*
%TD*%
D10*
%TO.C,J4*%
X139750000Y-88500000D03*
D11*
X142290000Y-88500000D03*
X144830000Y-88500000D03*
%TD*%
D12*
%TO.C,J2*%
X230000000Y-88040000D03*
D13*
X230000000Y-82960000D03*
%TD*%
D12*
%TO.C,J5*%
X230250000Y-64330000D03*
D13*
X230250000Y-59250000D03*
X230250000Y-54170000D03*
X230250000Y-49090000D03*
%TD*%
D12*
%TO.C,J7*%
X230000000Y-76580000D03*
D13*
X230000000Y-71500000D03*
%TD*%
D10*
%TO.C,J10*%
X174750000Y-85890000D03*
D11*
X174750000Y-88430000D03*
%TD*%
D10*
%TO.C,J8*%
X208750000Y-35420000D03*
D11*
X208750000Y-37960000D03*
X208750000Y-40500000D03*
X208750000Y-43040000D03*
X208750000Y-45580000D03*
X208750000Y-48120000D03*
X208750000Y-50660000D03*
X208750000Y-53200000D03*
%TD*%
D12*
%TO.C,J1*%
X219000000Y-27750000D03*
D13*
X213920000Y-27750000D03*
%TD*%
D12*
%TO.C,J6*%
X230250000Y-41910000D03*
D13*
X230250000Y-36830000D03*
X230250000Y-31750000D03*
X230250000Y-26670000D03*
%TD*%
D14*
%TO.C,A1*%
X175950000Y-26500000D03*
D15*
X173410000Y-26500000D03*
X170870000Y-26500000D03*
X168330000Y-26500000D03*
X165790000Y-26500000D03*
X163250000Y-26500000D03*
X160710000Y-26500000D03*
X158170000Y-26500000D03*
X153090000Y-26500000D03*
X150550000Y-26500000D03*
X148010000Y-26500000D03*
X145470000Y-26500000D03*
X142930000Y-26500000D03*
X140390000Y-26500000D03*
X140390000Y-74760000D03*
X142930000Y-74760000D03*
X145470000Y-74760000D03*
X148010000Y-74760000D03*
X150550000Y-74760000D03*
X153090000Y-74760000D03*
X155630000Y-74760000D03*
X158170000Y-74760000D03*
X162230000Y-74760000D03*
X164770000Y-74760000D03*
X167310000Y-74760000D03*
X169850000Y-74760000D03*
X172390000Y-74760000D03*
X174930000Y-74760000D03*
X177470000Y-74760000D03*
X180010000Y-74760000D03*
X182550000Y-74760000D03*
X185090000Y-74760000D03*
%TD*%
M02*
